<?xml version="1.0" encoding="UTF-8"?>
<svg width="302px" height="100px" viewBox="0 0 302 100" version="1.1" xmlns="http://www.w3.org/2000/svg" xmlns:xlink="http://www.w3.org/1999/xlink">
    <title>ndtv-photo</title>
    <defs>
        <linearGradient x1="81.0588204%" y1="-14.2524299%" x2="50%" y2="100%" id="linearGradient-1">
            <stop stop-color="#FF0000" offset="0%"></stop>
            <stop stop-color="#FF00D9" offset="100%"></stop>
        </linearGradient>
        <linearGradient x1="159.144197%" y1="100%" x2="-60.1845684%" y2="0%" id="linearGradient-2">
            <stop stop-color="#E50000" offset="0%"></stop>
            <stop stop-color="#F300FF" offset="100%"></stop>
        </linearGradient>
    </defs>
    <g id="Page-1" stroke="none" stroke-width="1" fill="none" fill-rule="evenodd">
        <g id="ndtv-photo" transform="translate(1.000000, 1.000000)">
            <g id="photo" transform="translate(12.229398, 13.700000)">
                <path d="M16.908879,21.6610003 C27.4575985,21.6610003 33.8331982,26.99332 33.8331982,35.8032396 C33.8331982,44.6131592 27.4575985,49.945479 16.908879,49.945479 L6.8817995,49.945479 L6.8817995,62.2329984 L1.08579972,62.2329984 L1.08579972,21.6610003 L16.908879,21.6610003 Z M16.734999,44.9029592 C24.1538787,44.9029592 28.0371985,41.5992394 28.0371985,35.8032396 C28.0371985,30.0072399 24.1538787,26.70352 16.734999,26.70352 L6.8817995,26.70352 L6.8817995,44.9029592 L16.734999,44.9029592 Z M75.7732365,21.6610003 L81.5692363,21.6610003 L81.5692363,62.2329984 L75.7732365,62.2329984 L75.7732365,44.1494792 L52.4733176,44.1494792 L52.4733176,62.2329984 L46.6773178,62.2329984 L46.6773178,21.6610003 L52.4733176,21.6610003 L52.4733176,39.1069595 L75.7732365,39.1069595 L75.7732365,21.6610003 Z M165.866993,62.2329984 L165.866993,26.70352 L151.956594,26.70352 L151.956594,21.6610003 L185.515432,21.6610003 L185.515432,26.70352 L171.605033,26.70352 L171.605033,62.2329984 L165.866993,62.2329984 Z M213.892831,62.6966784 C201.431432,62.6966784 192.273752,53.8287988 192.273752,41.9469993 C192.273752,30.0651999 201.431432,21.1973203 213.892831,21.1973203 C226.238311,21.1973203 235.39599,30.0072399 235.39599,41.9469993 C235.39599,53.8867588 226.238311,62.6966784 213.892831,62.6966784 Z M213.892831,57.5382386 C222.876631,57.5382386 229.59999,50.9307989 229.59999,41.9469993 C229.59999,32.9631997 222.876631,26.3557601 213.892831,26.3557601 C204.793112,26.3557601 198.069752,32.9631997 198.069752,41.9469993 C198.069752,50.9307989 204.793112,57.5382386 213.892831,57.5382386 Z M260.411709,62.6966784 C254.20999,62.6966784 248.12419,60.6101185 244.87843,57.5961986 L247.02295,53.0753188 C250.03687,55.7994387 255.195309,57.7700786 260.411709,57.7700786 C267.424869,57.7700786 270.438789,55.0459587 270.438789,51.5103989 C270.438789,41.5992394 245.86375,47.8589191 245.86375,32.7893198 C245.86375,26.52964 250.73239,21.1973203 261.397029,21.1973203 C266.149749,21.1973203 271.076349,22.4724402 274.438029,24.7908401 L272.525349,29.4276399 C268.989789,27.1672 264.990549,26.1239201 261.397029,26.1239201 C254.49979,26.1239201 251.54383,29.0219199 251.54383,32.5574798 C251.54383,42.4686393 276.118869,36.2669196 276.118869,51.1626389 C276.118869,57.3643586 271.134309,62.6966784 260.411709,62.6966784 Z" id="PHTOS" fill="#000000" fill-rule="nonzero"></path>
                <g id="ndtv" transform="translate(0.960602, 0.000000)" fill-rule="nonzero">
                    <path d="M17.5549792,12.0587739 L17.3787646,12.0587739 C16.2225586,12.0587739 15.524727,10.9030651 15.2355404,10.3836152 L12.2831342,4.44143126 C10.8901736,1.67139063 8.40046594,0 5.61778795,0 L0,0 L0,16.9049992 L5.44697865,16.9049992 L5.44697865,4.84461051 L5.61778795,4.84461051 C6.83615551,4.84461051 7.58966233,6.11497504 7.76101216,6.51976917 L10.7744989,12.4619531 C12.0496227,15.2319937 14.5414925,16.9049992 17.3787646,16.9049992 L22.942499,16.9049992 L22.942499,0 L17.5549792,0 L17.5549792,12.0587739" id="Fill-11" fill="#222222"></path>
                    <path d="M36.1929177,0 L24.7073066,0 L24.7073066,16.9049992 L36.1929177,16.9049992 L36.1929177,12.9232677 L30.1242202,12.9232677 L30.1242202,3.98388471 L36.1929177,3.98388471 L36.1929177,0 Z M86.0010967,0 L79.2167691,12.574994 L72.0143893,0 L36.1929177,0 L36.1929177,3.98388471 L39.1081799,3.98388471 C41.1923342,3.98388471 42.1999901,5.01740162 42.1999901,6.57628962 L42.1999901,10.2689594 C42.1999901,12.0001002 41.2517387,12.9232677 39.1081799,12.9232677 L36.1929177,12.9232677 L36.1929177,16.9049992 L39.8837696,16.9049992 C45.1196937,16.9049992 47.6207899,13.9605526 47.6207899,9.11378895 L47.6207899,7.26799235 C47.6207899,6.75015731 47.6207899,5.36459871 47.1999618,3.98388471 L55.5326927,3.98388471 L55.5326927,16.9049992 L60.8885363,16.9049992 L60.8885363,3.98388471 L68.3840523,3.98388471 L75.8273813,16.9049992 L82.5500836,16.9049992 L91.7699958,0 L86.0010967,0 L86.0010967,0 Z" id="Fill-12" fill="#222222"></path>
                    <path d="M28.2369218,8.48261609 C28.2369218,10.3100607 26.6839153,11.8334995 24.674071,11.8334995 C22.733115,11.8334995 21.1776913,10.3100607 21.1776913,8.48261609 C21.1776913,6.65687617 22.733115,5.07149977 24.674071,5.07149977 C26.6839153,5.07149977 28.2369218,6.65687617 28.2369218,8.48261609" id="Fill-13" fill="#D82A2D"></path>
                </g>
                <path d="M122.170602,75.9 C141.224426,75.9 156.670602,60.4538239 156.670602,41.4 C156.670602,22.3461761 141.224426,6.9 122.170602,6.9 C103.116778,6.9 87.670602,22.3461761 87.670602,41.4" id="Oval" stroke="url(#linearGradient-1)" stroke-width="4.5995401" stroke-linecap="round" transform="translate(122.170602, 41.400000) rotate(-170.000000) translate(-122.170602, -41.400000) "></path>
                <path d="M122.020602,60.8 C132.817769,60.8 141.570602,52.0471669 141.570602,41.25 C141.570602,30.4528331 132.817769,21.7 122.020602,21.7 C111.223435,21.7 102.470602,30.4528331 102.470602,41.25" id="Oval" stroke="url(#linearGradient-2)" stroke-width="4.5995401" stroke-linecap="round" transform="translate(122.020602, 41.250000) scale(-1, 1) rotate(-160.000000) translate(-122.020602, -41.250000) "></path>
            </g>
            <polyline id="Path-10" stroke="#000000" stroke-width="2.3" points="23.1800109 0.527511535 0.571522457 0.527511535 0.571522457 22.1524996"></polyline>
            <polyline id="Path-10" stroke="#000000" stroke-width="2.3" transform="translate(287.875767, 78.040006) rotate(180.000000) translate(-287.875767, -78.040006) " points="299.180012 67.2275124 276.571523 67.2275124 276.571523 88.8525005"></polyline>
        </g>
    </g>
</svg>